<svg width="38" height="37" viewBox="0 0 38 37" fill="none" xmlns="http://www.w3.org/2000/svg">
<g clip-path="url(#clip0_1_271)">
<path d="M23.6859 30.7216C24.6547 30.7216 25.4431 29.9332 25.4431 28.9643C25.4431 27.9955 24.6547 27.2071 23.6859 27.2071C22.9233 27.2071 22.279 27.6986 22.0365 28.3786H19.5857V24.8642H22.0365C22.279 25.5442 22.9233 26.0356 23.6859 26.0356C24.6547 26.0356 25.4431 25.2472 25.4431 24.2784C25.4431 23.3096 24.6547 22.5212 23.6859 22.5212C22.9233 22.5212 22.279 23.0126 22.0365 23.6927H19.5857V20.1783H22.0365C22.279 20.8583 22.9233 21.3497 23.6859 21.3497C24.6547 21.3497 25.4431 20.5613 25.4431 19.5925C25.4431 18.6237 24.6547 17.8353 23.6859 17.8353C22.9233 17.8353 22.279 18.3267 22.0365 19.0068H19.5857V17.8353H18.4143V15.3846C19.0943 15.1421 19.5857 14.4978 19.5857 13.7351C19.5857 12.7663 18.7973 11.9779 17.8285 11.9779C16.8597 11.9779 16.0713 12.7663 16.0713 13.7351C16.0713 14.4978 16.5627 15.1421 17.2428 15.3846V17.8353H13.7283V15.3846C14.4084 15.1421 14.8998 14.4978 14.8998 13.7351C14.8998 12.7663 14.1114 11.9779 13.1426 11.9779C12.1738 11.9779 11.3854 12.7663 11.3854 13.7351C11.3854 14.4978 11.8768 15.1421 12.5569 15.3846V17.8353H9.04244V15.3846C9.72248 15.1421 10.2139 14.4978 10.2139 13.7351C10.2139 12.7663 9.42551 11.9779 8.4567 11.9779C7.48789 11.9779 6.69949 12.7663 6.69949 13.7351C6.69949 14.4978 7.19092 15.1421 7.87096 15.3846V17.8353H6.69949V19.0068H4.24876C4.00626 18.3267 3.36195 17.8353 2.59932 17.8353C1.63051 17.8353 0.842102 18.6237 0.842102 19.5925C0.842102 20.5613 1.63051 21.3497 2.59932 21.3497C3.36195 21.3497 4.00626 20.8583 4.24876 20.1783H6.69949V23.6927H4.24876C4.00626 23.0126 3.36195 22.5212 2.59932 22.5212C1.63051 22.5212 0.842102 23.3096 0.842102 24.2784C0.842102 25.2472 1.63051 26.0356 2.59932 26.0356C3.36195 26.0356 4.00626 25.5442 4.24876 24.8642H6.69949V28.3786H4.24876C4.00626 27.6986 3.36195 27.2071 2.59932 27.2071C1.63051 27.2071 0.842102 27.9955 0.842102 28.9643C0.842102 29.9332 1.63051 30.7216 2.59932 30.7216C3.36195 30.7216 4.00626 30.2301 4.24876 29.5501H6.69949V30.7216H7.87096V33.1723C7.19092 33.4148 6.69949 34.0591 6.69949 34.8217C6.69949 35.7905 7.48789 36.5789 8.4567 36.5789C9.42551 36.5789 10.2139 35.7905 10.2139 34.8217C10.2139 34.0591 9.72248 33.4148 9.04244 33.1723V30.7216H12.5569V33.1723C11.8768 33.4148 11.3854 34.0591 11.3854 34.8217C11.3854 35.7905 12.1738 36.5789 13.1426 36.5789C14.1114 36.5789 14.8998 35.7905 14.8998 34.8217C14.8998 34.0591 14.4084 33.4148 13.7283 33.1723V30.7216H17.2428V33.1723C16.5627 33.4148 16.0713 34.0591 16.0713 34.8217C16.0713 35.7905 16.8597 36.5789 17.8285 36.5789C18.7973 36.5789 19.5857 35.7905 19.5857 34.8217C19.5857 34.0591 19.0943 33.4148 18.4143 33.1723V30.7216H19.5857V29.5501H22.0365C22.279 30.2301 22.9233 30.7216 23.6859 30.7216ZM23.6859 28.3786C24.0092 28.3786 24.2716 28.641 24.2716 28.9643C24.2716 29.2877 24.0092 29.5501 23.6859 29.5501C23.3626 29.5501 23.1002 29.2877 23.1002 28.9643C23.1002 28.641 23.3626 28.3786 23.6859 28.3786ZM23.6859 23.6927C24.0092 23.6927 24.2716 23.9551 24.2716 24.2784C24.2716 24.6018 24.0092 24.8642 23.6859 24.8642C23.3626 24.8642 23.1002 24.6018 23.1002 24.2784C23.1002 23.9551 23.3626 23.6927 23.6859 23.6927ZM23.6859 19.0068C24.0092 19.0068 24.2716 19.2692 24.2716 19.5925C24.2716 19.9158 24.0092 20.1783 23.6859 20.1783C23.3626 20.1783 23.1002 19.9158 23.1002 19.5925C23.1002 19.2692 23.3626 19.0068 23.6859 19.0068ZM2.59932 20.1783C2.27599 20.1783 2.01358 19.9158 2.01358 19.5925C2.01358 19.2692 2.27599 19.0068 2.59932 19.0068C2.92265 19.0068 3.18506 19.2692 3.18506 19.5925C3.18506 19.9158 2.92265 20.1783 2.59932 20.1783ZM2.59932 24.8642C2.27599 24.8642 2.01358 24.6018 2.01358 24.2784C2.01358 23.9551 2.27599 23.6927 2.59932 23.6927C2.92265 23.6927 3.18506 23.9551 3.18506 24.2784C3.18506 24.6018 2.92265 24.8642 2.59932 24.8642ZM2.59932 29.5501C2.27599 29.5501 2.01358 29.2877 2.01358 28.9643C2.01358 28.641 2.27599 28.3786 2.59932 28.3786C2.92265 28.3786 3.18506 28.641 3.18506 28.9643C3.18506 29.2877 2.92265 29.5501 2.59932 29.5501ZM17.8285 13.1494C18.1518 13.1494 18.4143 13.4124 18.4143 13.7351C18.4143 14.0579 18.1518 14.3209 17.8285 14.3209C17.5052 14.3209 17.2428 14.0579 17.2428 13.7351C17.2428 13.4124 17.5052 13.1494 17.8285 13.1494ZM13.1426 13.1494C13.4659 13.1494 13.7283 13.4124 13.7283 13.7351C13.7283 14.0579 13.4659 14.3209 13.1426 14.3209C12.8193 14.3209 12.5569 14.0579 12.5569 13.7351C12.5569 13.4124 12.8193 13.1494 13.1426 13.1494ZM8.4567 13.1494C8.78003 13.1494 9.04244 13.4124 9.04244 13.7351C9.04244 14.0579 8.78003 14.3209 8.4567 14.3209C8.13337 14.3209 7.87096 14.0579 7.87096 13.7351C7.87096 13.4124 8.13337 13.1494 8.4567 13.1494ZM8.4567 35.4075C8.13337 35.4075 7.87096 35.1451 7.87096 34.8217C7.87096 34.4984 8.13337 34.236 8.4567 34.236C8.78003 34.236 9.04244 34.4984 9.04244 34.8217C9.04244 35.1451 8.78003 35.4075 8.4567 35.4075ZM13.1426 35.4075C12.8193 35.4075 12.5569 35.1451 12.5569 34.8217C12.5569 34.4984 12.8193 34.236 13.1426 34.236C13.4659 34.236 13.7283 34.4984 13.7283 34.8217C13.7283 35.1451 13.4659 35.4075 13.1426 35.4075ZM17.8285 35.4075C17.5052 35.4075 17.2428 35.1451 17.2428 34.8217C17.2428 34.4984 17.5052 34.236 17.8285 34.236C18.1518 34.236 18.4143 34.4984 18.4143 34.8217C18.4143 35.1451 18.1518 35.4075 17.8285 35.4075ZM18.4143 29.5501H7.87096V19.0068H18.4143V29.5501Z" fill="white"/>
<path d="M34.519 9.63438V9.63497C34.3005 8.78799 33.9643 7.9785 33.5151 7.21938L35.383 5.35088L32.0695 2.03794L30.201 3.90645C29.4418 3.4566 28.6329 3.12039 27.7859 2.90191V0.263153H23.1V2.90191C22.2531 3.12039 21.4442 3.4566 20.685 3.90586L18.8165 2.03736L15.503 5.35029L17.3709 7.2188C16.9217 7.97792 16.5855 8.78741 16.367 9.63438H14.314V10.8059H17.3118L17.4072 10.3367C17.6152 9.31106 18.0176 8.34283 18.6033 7.45778L18.8675 7.05889L17.1589 5.35029L18.816 3.69382L20.5246 5.40242L20.9234 5.13826C21.8079 4.55252 22.7761 4.15011 23.8023 3.94218L24.2715 3.84729V1.43463H26.6145V3.84729L27.0837 3.94276C28.1099 4.1507 29.0781 4.5531 29.9626 5.13884L30.3614 5.40301L32.07 3.69441L33.7271 5.35088L32.0185 7.05948L32.2827 7.45837C32.8684 8.34342 33.2708 9.31164 33.4787 10.3373L33.5742 10.8064H35.9863V13.1494H33.5742L33.4787 13.6186C33.2708 14.6442 32.8684 15.6124 32.2827 16.4969L32.0185 16.8964L33.7271 18.605L32.07 20.262L30.3614 18.5534L29.9626 18.8176C29.0775 19.4033 28.1093 19.8063 27.0837 20.0137L26.6145 20.1091V23.107H27.7859V21.0539C28.6323 20.8361 29.4418 20.4998 30.201 20.05L32.0695 21.9179L35.383 18.6044L33.5151 16.7359C33.9643 15.9768 34.3005 15.1673 34.519 14.3203H37.1578V9.63438H34.519Z" fill="white"/>
<path d="M25.4431 16.6638V17.8353C28.6728 17.8353 31.3005 15.2077 31.3005 11.9779C31.3005 8.74817 28.6728 6.12054 25.4431 6.12054C22.2133 6.12054 19.5857 8.74817 19.5857 11.9779H20.7572C20.7572 9.39424 22.8594 7.29202 25.4431 7.29202C28.0268 7.29202 30.129 9.39424 30.129 11.9779C30.129 14.5616 28.0268 16.6638 25.4431 16.6638Z" fill="white"/>
<path d="M17.2429 20.1783H9.04254V21.3497H17.2429V20.1783Z" fill="white"/>
<path d="M17.2428 27.2071H16.0713V28.3786H17.2428V27.2071Z" fill="white"/>
<path d="M14.8999 27.2071H9.04254V28.3786H14.8999V27.2071Z" fill="white"/>
<path d="M22.3977 35.0666L22.6309 36.2152C29.7827 34.7631 35.342 29.2039 36.794 22.052L35.6454 21.8189C34.2882 28.5092 29.088 33.7094 22.3977 35.0666Z" fill="white"/>
<path d="M15.602 1.77494L15.3689 0.626892C8.21704 2.07894 2.6578 7.63818 1.20575 14.7901L2.35438 15.0226C3.71154 8.33345 8.91173 3.13268 15.602 1.77494Z" fill="white"/>
</g>
<defs>
<clipPath id="clip0_1_271">
<rect width="36.3158" height="36.3158" fill="white" transform="translate(0.842102 0.263153)"/>
</clipPath>
</defs>
</svg>
