<svg width="22" height="20" viewBox="0 0 22 20" fill="none" xmlns="http://www.w3.org/2000/svg">
<path d="M11 4L11 18" stroke="white" stroke-width="1.5" stroke-linecap="round"/>
<path d="M4.98056 1.28544C8.32175 1.9216 10.3131 3.25231 11 4.01628C11.6869 3.25231 13.6782 1.9216 17.0194 1.28544C18.7121 0.963154 19.5584 0.802012 20.2792 1.41964C21 2.03727 21 3.04022 21 5.04612V12.255C21 14.0891 21 15.0061 20.5374 15.5787C20.0748 16.1512 19.0564 16.3451 17.0194 16.733C15.2037 17.0787 13.7866 17.6295 12.7608 18.1831C11.7516 18.7277 11.247 19 11 19C10.753 19 10.2484 18.7277 9.23918 18.1831C8.21344 17.6295 6.79633 17.0787 4.98056 16.733C2.94365 16.3451 1.9252 16.1512 1.4626 15.5787C1 15.0061 1 14.0891 1 12.255V5.04612C1 3.04022 1 2.03727 1.72078 1.41964C2.44157 0.802012 3.2879 0.963154 4.98056 1.28544Z" stroke="white" stroke-width="1.5" stroke-linecap="round" stroke-linejoin="round"/>
</svg>
