<svg width="10" height="10" viewBox="0 0 10 10" fill="none" xmlns="http://www.w3.org/2000/svg">
<path fill-rule="evenodd" clip-rule="evenodd" d="M2.49445 1.55862C2.49445 2.147 2.05158 2.61762 1.3402 2.61762H1.32745C0.642704 2.61762 0.199829 2.147 0.199829 1.55862C0.199829 0.9575 0.656204 0.5 1.3537 0.5C2.0512 0.5 2.48133 0.9575 2.49445 1.55862ZM2.3602 3.45425V9.5825H0.320204V3.45425H2.3602ZM9.71545 9.5825V6.06875C9.71545 4.18625 8.70933 3.31025 7.3672 3.31025C6.28458 3.31025 5.7997 3.905 5.52895 4.32238V3.45425H3.48895C3.51595 4.0295 3.48895 9.5825 3.48895 9.5825H5.52895V6.15987C5.52895 5.97688 5.54208 5.79425 5.59608 5.663C5.74345 5.297 6.07908 4.91825 6.64233 4.91825C7.38108 4.91825 7.6762 5.48037 7.6762 6.30387V9.5825H9.71545Z" fill="white"/>
</svg>
