<svg width="22" height="22" viewBox="0 0 22 22" fill="none" xmlns="http://www.w3.org/2000/svg">
<path d="M15 9L17.1494 9.64482C18.5226 10.0568 19.2092 10.2628 19.6046 10.7942C20 11.3256 20 12.0425 20 13.4761V21" stroke="white" stroke-width="1.5" stroke-linejoin="round"/>
<path d="M7 8L10 8M7 12L10 12" stroke="white" stroke-width="1.5" stroke-linecap="round" stroke-linejoin="round"/>
<path d="M11 21V18C11 17.0572 11 16.5858 10.7071 16.2929C10.4142 16 9.94281 16 9 16H8C7.05719 16 6.58579 16 6.29289 16.2929C6 16.5858 6 17.0572 6 18V21" stroke="white" stroke-width="1.5" stroke-linejoin="round"/>
<path d="M1 21L21 21" stroke="white" stroke-width="1.5" stroke-linecap="round"/>
<path d="M2 21V5.71724C2 3.20649 2 1.95111 2.79118 1.32824C3.58237 0.705375 4.74742 1.04355 7.07752 1.7199L12.0775 3.17122C13.4836 3.57937 14.1867 3.78344 14.5933 4.33965C15 4.89587 15 5.65344 15 7.16857V21" stroke="white" stroke-width="1.5" stroke-linecap="round" stroke-linejoin="round"/>
</svg>
