<svg width="22" height="22" viewBox="0 0 22 22" fill="none" xmlns="http://www.w3.org/2000/svg">
<path d="M12.7276 2.44418L14.4874 5.99288C14.7274 6.48687 15.3673 6.9607 15.9073 7.05143L19.0969 7.58575C21.1367 7.92853 21.6167 9.42059 20.1468 10.8925L17.6671 13.3927C17.2471 13.8161 17.0172 14.6327 17.1471 15.2175L17.8571 18.3125C18.417 20.7623 17.1271 21.71 14.9774 20.4296L11.9877 18.6452C11.4478 18.3226 10.5579 18.3226 10.0079 18.6452L7.01827 20.4296C4.8785 21.71 3.57865 20.7522 4.13859 18.3125L4.84851 15.2175C4.97849 14.6327 4.74852 13.8161 4.32856 13.3927L1.84884 10.8925C0.389 9.42059 0.858948 7.92853 2.89872 7.58575L6.08837 7.05143C6.61831 6.9607 7.25824 6.48687 7.49821 5.99288L9.25802 2.44418C10.2179 0.518607 11.7777 0.518607 12.7276 2.44418Z" stroke="white" stroke-width="1.5" stroke-linecap="round" stroke-linejoin="round"/>
</svg>
